<svg width="30" height="30" viewBox="0 0 30 30" fill="none" xmlns="http://www.w3.org/2000/svg">
<path d="M11.25 10C11.25 12.0711 12.9289 13.75 15 13.75C17.0711 13.75 18.75 12.0711 18.75 10M3.75 21.0002V9.00024C3.75 7.60011 3.75 6.89953 4.02248 6.36475C4.26217 5.89434 4.64434 5.51217 5.11475 5.27248C5.64953 5 6.35011 5 7.75024 5H22.2502C23.6504 5 24.3495 5 24.8842 5.27248C25.3547 5.51217 25.7381 5.89434 25.9778 6.36475C26.25 6.899 26.25 7.59874 26.25 8.99614V21.0045C26.25 22.4019 26.25 23.1006 25.9778 23.6349C25.7381 24.1053 25.3547 24.4881 24.8842 24.7278C24.35 25 23.6513 25 22.2539 25H7.74614C6.34874 25 5.649 25 5.11475 24.7278C4.64434 24.4881 4.26217 24.1053 4.02248 23.6349C3.75 23.1001 3.75 22.4004 3.75 21.0002Z" stroke="white" stroke-width="2" stroke-linecap="round" stroke-linejoin="round"/>
</svg>
