<svg width="30" height="30" viewBox="0 0 30 30" fill="none" xmlns="http://www.w3.org/2000/svg">
<path d="M1.57892 13.3537V19.3539C1.57892 20.754 1.57892 21.4537 1.8514 21.9885C2.09109 22.4589 2.47326 22.8418 2.94366 23.0814C3.47792 23.3537 4.17766 23.3537 5.57506 23.3537H20.0828C21.4802 23.3537 22.1789 23.3537 22.7132 23.0814C23.1836 22.8418 23.567 22.4589 23.8067 21.9885C24.0789 21.4542 24.0789 20.7555 24.0789 19.3581V13.3537M1.57892 13.3537V10.8537M1.57892 13.3537H24.0789M1.57892 10.8537V9.8539C1.57892 8.45377 1.57892 7.75318 1.8514 7.2184C2.09109 6.74799 2.47326 6.36582 2.94366 6.12614C3.47844 5.85365 4.17903 5.85365 5.57916 5.85365H20.0792C21.4793 5.85365 22.1784 5.85365 22.7132 6.12614C23.1836 6.36582 23.567 6.74799 23.8067 7.2184C24.0789 7.75266 24.0789 8.4524 24.0789 9.84979V10.8537M1.57892 10.8537H24.0789M6.57892 18.3537H11.5789M24.0789 13.3537V10.8537" stroke="white" stroke-width="2" stroke-linecap="round" stroke-linejoin="round"/>
</svg>
