<svg width="30" height="30" viewBox="0 0 30 30" fill="none" xmlns="http://www.w3.org/2000/svg">
<path d="M17.0007 26.3451L23.8261 22.4045C24.5546 21.9838 24.9182 21.7734 25.1832 21.4792C25.4176 21.2188 25.5949 20.9122 25.7031 20.579C25.8252 20.2033 25.8252 19.7834 25.8252 18.9461V11.0533C25.8252 10.216 25.8252 9.79617 25.7031 9.42048C25.5949 9.08728 25.4176 8.78035 25.1832 8.52C24.9194 8.22701 24.5566 8.01756 23.8343 7.60053L16.9995 3.65448C16.2709 3.23382 15.9073 3.02392 15.52 2.94159C15.1773 2.86875 14.823 2.86875 14.4803 2.94159C14.093 3.02392 13.7282 3.23382 12.9996 3.65448L6.17304 7.59582C5.44528 8.01599 5.08169 8.22591 4.81689 8.52C4.58247 8.78035 4.40543 9.08728 4.29716 9.42048C4.1748 9.79706 4.1748 10.2179 4.1748 11.0593V18.9405C4.1748 19.7818 4.1748 20.2024 4.29716 20.579C4.40543 20.9122 4.58247 21.2188 4.81689 21.4792C5.08184 21.7734 5.44571 21.9838 6.17432 22.4045L12.9996 26.3451C13.7282 26.7657 14.093 26.9757 14.4803 27.0581C14.823 27.1309 15.1773 27.1309 15.52 27.0581C15.9073 26.9757 16.2721 26.7657 17.0007 26.3451Z" stroke="white" stroke-width="2" stroke-linecap="round" stroke-linejoin="round"/>
<path d="M11.25 14.9997C11.25 17.0708 12.9289 18.7497 15 18.7497C17.0711 18.7497 18.75 17.0708 18.75 14.9997C18.75 12.9286 17.0711 11.2497 15 11.2497C12.9289 11.2497 11.25 12.9286 11.25 14.9997Z" stroke="white" stroke-width="2" stroke-linecap="round" stroke-linejoin="round"/>
</svg>
