<svg width="33" height="33" viewBox="0 0 33 33" fill="none" xmlns="http://www.w3.org/2000/svg">
<path d="M15.8125 20.625C14.6734 20.625 13.75 19.7016 13.75 18.5625C13.75 17.4234 14.6734 16.5 15.8125 16.5M4.125 21.7253V11.2753C4.125 9.73512 4.125 8.96448 4.42473 8.37622C4.68838 7.85877 5.10877 7.43838 5.62622 7.17473C6.21448 6.875 6.98512 6.875 8.52527 6.875H24.4753C26.0154 6.875 26.7844 6.875 27.3727 7.17473C27.8901 7.43838 28.3119 7.85877 28.5756 8.37622C28.875 8.9639 28.875 9.73362 28.875 11.2708V21.7299C28.875 23.2671 28.875 24.0357 28.5756 24.6233C28.3119 25.1408 27.8901 25.5619 27.3727 25.8256C26.785 26.125 26.0164 26.125 24.4792 26.125H8.52075C6.98362 26.125 6.2139 26.125 5.62622 25.8256C5.10877 25.5619 4.68838 25.1408 4.42473 24.6233C4.125 24.0351 4.125 23.2654 4.125 21.7253ZM23.375 18.5625C23.375 19.7016 22.4516 20.625 21.3125 20.625C20.1734 20.625 19.25 19.7016 19.25 18.5625C19.25 17.4234 20.1734 16.5 21.3125 16.5C22.4516 16.5 23.375 17.4234 23.375 18.5625Z" stroke="white" stroke-width="2" stroke-linecap="round" stroke-linejoin="round"/>
</svg>
