<svg width="33" height="31" viewBox="0 0 33 31" fill="none" xmlns="http://www.w3.org/2000/svg">
<path d="M10.288 25.5773C12.0984 26.5617 14.1989 27.1249 16.4389 27.1249C23.2483 27.1249 28.769 21.9203 28.769 15.5C28.769 9.07969 23.2488 3.875 16.4394 3.875C9.62999 3.875 4.10986 9.07969 4.10986 15.5C4.10986 17.612 4.70722 19.5925 5.75133 21.2994L5.75537 21.306C5.85583 21.4703 5.9065 21.5531 5.92944 21.6314C5.95108 21.7052 5.95713 21.7715 5.95159 21.848C5.94563 21.9301 5.91628 22.0152 5.85611 22.1854L4.80287 25.1646L4.80154 25.1685C4.57932 25.7971 4.4682 26.1114 4.5474 26.3208C4.61646 26.5034 4.76975 26.6475 4.96341 26.7126C5.18502 26.7871 5.51686 26.6828 6.18061 26.4742L6.18887 26.4713L9.34861 25.4783C9.52853 25.4217 9.61999 25.393 9.70692 25.3874C9.78796 25.3822 9.85786 25.3891 9.93616 25.4095C10.0194 25.4312 10.1073 25.479 10.2824 25.5742L10.288 25.5773Z" stroke="white" stroke-width="2" stroke-linecap="round" stroke-linejoin="round"/>
</svg>
