<svg width="32" height="30" viewBox="0 0 32 30" fill="none" xmlns="http://www.w3.org/2000/svg">
<path d="M8.94136 22.7022C10.7366 24.1373 13.0417 25 15.5557 25C21.2831 25 25.9261 20.5228 25.9261 15C25.9261 14.2887 25.8491 13.5947 25.7027 12.9254M8.94136 22.7022C6.64685 20.868 5.18538 18.0986 5.18538 15C5.18538 9.47715 9.82835 5 15.5557 5C20.5455 5 24.7122 8.39816 25.7027 12.9254M8.94136 22.7022C11.4763 22.1434 14.492 20.9785 17.5337 19.2851C21.0731 17.3147 23.952 15.0156 25.7027 12.9254M8.94136 22.7022C5.79243 23.3964 3.38541 23.1554 2.59215 21.8305C1.77508 20.4658 2.84708 18.2462 5.18519 15.8862M25.7027 12.9254C27.3254 10.988 27.9787 9.23007 27.2899 8.07967C26.5915 6.91314 24.642 6.58673 22.0366 6.99911" stroke="white" stroke-width="2" stroke-linecap="round" stroke-linejoin="round"/>
</svg>
