<svg width="32" height="32" viewBox="0 0 32 32" fill="none" xmlns="http://www.w3.org/2000/svg">
<path d="M12 14.6667V26.6667M12 14.6667H6.13281C5.38608 14.6667 5.01308 14.6667 4.72786 14.812C4.47698 14.9398 4.27316 15.1436 4.14532 15.3945C4 15.6797 4 16.0534 4 16.8001V26.6667H12M12 14.6667V7.4668C12 6.72006 12 6.34641 12.1453 6.0612C12.2732 5.81031 12.477 5.60649 12.7279 5.47866C13.0131 5.33333 13.3861 5.33333 14.1328 5.33333H17.8661C18.6129 5.33333 18.987 5.33333 19.2723 5.47866C19.5231 5.60649 19.7263 5.81031 19.8542 6.0612C19.9995 6.34641 20 6.72006 20 7.4668V10.6667M12 26.6667H20M20 26.6667L28 26.6668V12.8001C28 12.0534 27.9995 11.6797 27.8542 11.3945C27.7263 11.1436 27.5239 10.9398 27.273 10.812C26.9878 10.6667 26.6134 10.6667 25.8667 10.6667H20M20 26.6667V10.6667" stroke="white" stroke-width="2" stroke-linecap="round" stroke-linejoin="round"/>
</svg>
