<svg width="15" height="15" viewBox="0 0 15 15" fill="none" xmlns="http://www.w3.org/2000/svg">
<path d="M13.1666 2.20007C13.1666 1.78003 13.1664 1.56986 13.0892 1.40942C13.0213 1.2683 12.9133 1.15365 12.78 1.08175C12.6285 1 12.4297 1 12.033 1H2.96637C2.56967 1 2.37151 1 2.21999 1.08175C2.08671 1.15365 1.97843 1.2683 1.91052 1.40942C1.83331 1.56986 1.83331 1.78003 1.83331 2.20007V2.75302C1.83331 2.93646 1.83331 3.02825 1.85288 3.11457C1.87024 3.19109 1.89893 3.26419 1.93776 3.3313C1.98156 3.40696 2.04291 3.47193 2.16534 3.60156L5.75145 7.39862C5.87395 7.52832 5.93487 7.59283 5.97868 7.66851C6.01751 7.73562 6.04659 7.80897 6.06394 7.8855C6.08332 7.97093 6.08331 8.06164 6.08331 8.24137V11.8083C6.08331 12.4512 6.08331 12.7728 6.2112 12.9664C6.32287 13.1355 6.49514 13.2482 6.68789 13.2784C6.90862 13.3129 7.18032 13.1693 7.72341 12.8818L8.29008 12.5818C8.51749 12.4614 8.63093 12.401 8.714 12.3112C8.78747 12.2317 8.84367 12.1364 8.87791 12.0313C8.91662 11.9124 8.91665 11.7775 8.91665 11.5083V8.24695C8.91665 8.06351 8.91665 7.97181 8.93622 7.8855C8.95357 7.80897 8.98226 7.73562 9.0211 7.66851C9.06461 7.59333 9.12537 7.529 9.24624 7.40101L9.24868 7.39862L12.8348 3.60156C12.9573 3.47185 13.0182 3.40699 13.062 3.3313C13.1008 3.26419 13.1299 3.19109 13.1473 3.11457C13.1666 3.02913 13.1666 2.93833 13.1666 2.7586V2.20007Z" stroke="white" stroke-width="2" stroke-linecap="round" stroke-linejoin="round"/>
</svg>
