<svg width="30" height="27" viewBox="0 0 30 27" fill="none" xmlns="http://www.w3.org/2000/svg">
<path d="M1.61926 17.442V20.3607C1.61926 22.1772 1.61926 23.0848 1.94126 23.7786C2.2245 24.3889 2.67612 24.8861 3.232 25.197C3.86334 25.5502 4.69023 25.5502 6.34155 25.5502H28.2081M1.61926 17.442V1.22433M1.61926 17.442L7.31127 12.2343L7.31598 12.2302C8.34567 11.2881 8.86151 10.8162 9.42085 10.6245C10.0816 10.398 10.7934 10.4338 11.4327 10.725C11.9748 10.9719 12.45 11.4937 13.4006 12.5373L13.4101 12.5478C14.3754 13.6076 14.8594 14.1389 15.4101 14.3852C16.0618 14.6767 16.7873 14.7018 17.4553 14.4585C18.0215 14.2523 18.5387 13.7563 19.5729 12.7629L28.2078 4.46779" stroke="white" stroke-width="2" stroke-linecap="round" stroke-linejoin="round"/>
</svg>
